# xmcd
#
# Track frame offsets:
#	150
#	12975
#	52840
#	83267
#	98077
#	136610
#	167170
#	199730
#	240267
#	272657
#	289760
#	314172
#
# Disc length: 4188 seconds
#
# Revision: 1
# Processed by: cddbd v1.5.1PL0 Copyright (c) Steve Scherf et al.
# Submitted via: audiograbber 1.83.01
#
DISCID=93105a0c
DTITLE=Ronnie Earl and The Broadcasters - Grateful Heart - Blues and Ballads
DYEAR=2005
DGENRE=Blues
TTITLE0=Alabama
TTITLE1=Ice Cream Man
TTITLE2=Drown in my Own Tears
TTITLE3=Still Soul Searching
TTITLE4=Skyman (for Duane)
TTITLE5=Welcome Home (to Vietnam Veterans)
TTITLE6=For Abby
TTITLE7=Isabella
TTITLE8=Little Flower
TTITLE9=Soundcheck
TTITLE10=Mr. B.K.
TTITLE11=Song for a Sun (to Carlos Santana)
EXTD=
EXTT0=
EXTT1=
EXTT2=
EXTT3=
EXTT4=
EXTT5=
EXTT6=
EXTT7=
EXTT8=
EXTT9=
EXTT10=
EXTT11=
PLAYORDER=
